<svg width="885" height="80" viewBox="0 0 885 504" fill="none" xmlns="http://www.w3.org/2000/svg">
    <path d="M51.2275 301.929C41.975 301.945 32.9034 300.62 25.0679 298.106C17.2312 295.594 10.9519 291.998 6.95799 287.734C2.96409 283.471 1.41975 278.716 2.50597 274.023C3.59219 269.33 7.26251 264.89 13.091 261.22L497.129 6.47731C500.757 4.33654 505.707 2.88989 511.156 2.3748C516.604 1.85983 522.244 2.30687 527.134 3.64289C532.023 4.9788 535.878 7.12409 538.067 9.72678C540.256 12.3295 540.649 15.2347 539.174 17.9657L445.304 168.313C442.532 172.097 441.604 176.169 442.592 180.177C443.579 184.185 446.458 188.01 450.979 191.326C455.488 194.641 461.52 197.348 468.54 199.212C475.547 201.076 483.352 202.043 491.263 202.03H833.499C842.755 202.013 851.833 203.338 859.661 205.852C867.501 208.364 873.783 211.96 877.769 216.224C881.766 220.487 883.313 225.242 882.23 229.935C881.136 234.628 877.471 239.069 871.642 242.738L387.606 497.481C383.975 499.622 379.027 501.068 373.575 501.583C368.122 502.099 362.489 501.651 357.599 500.315C352.711 498.979 348.855 496.835 346.667 494.232C344.479 491.629 344.089 488.724 345.559 485.993L439.427 335.645C442.199 331.861 443.127 327.789 442.14 323.781C441.152 319.773 438.273 315.948 433.752 312.632C429.237 309.317 423.211 306.611 416.195 304.747C409.178 302.883 401.382 301.915 393.473 301.929H51.2275Z" fill="black" stroke="black" stroke-width="4.33333" stroke-linecap="round" stroke-linejoin="round"/>
</svg>
