<svg width="418" height="302" viewBox="0 0 418 302" fill="none" xmlns="http://www.w3.org/2000/svg">
    <path d="M25.181 180.359C20.8407 180.368 16.5854 179.581 12.9093 178.087C9.23318 176.594 6.28726 174.455 4.41378 171.921C2.5403 169.387 1.81615 166.561 2.32547 163.771C2.83479 160.981 4.55668 158.341 7.29107 156.16L234.355 4.72913C236.058 3.45654 238.379 2.59658 240.937 2.2904C243.495 1.98422 246.138 2.25001 248.431 3.04416C250.725 3.8383 252.534 5.1136 253.56 6.66073C254.586 8.20787 254.77 9.9349 254.08 11.5584L210.043 100.932C208.745 103.182 208.309 105.601 208.772 107.984C209.236 110.367 210.586 112.641 212.706 114.612C214.826 116.582 217.653 118.191 220.944 119.299C224.235 120.407 227.893 120.982 231.603 120.974H392.153C396.493 120.965 400.749 121.753 404.425 123.246C408.101 124.74 411.047 126.878 412.92 129.412C414.794 131.946 415.518 134.773 415.008 137.563C414.499 140.353 412.777 142.992 410.043 145.174L182.979 296.604C181.276 297.877 178.955 298.737 176.397 299.043C173.839 299.349 171.196 299.083 168.903 298.289C166.609 297.495 164.8 296.22 163.774 294.673C162.748 293.125 162.564 291.398 163.254 289.775L207.291 200.401C208.589 198.152 209.025 195.732 208.562 193.349C208.098 190.967 206.748 188.692 204.628 186.722C202.508 184.751 199.681 183.142 196.39 182.034C193.099 180.926 189.441 180.351 185.731 180.359H25.181Z" stroke="#DDFF00" stroke-width="4.33333" stroke-linecap="round" stroke-linejoin="round"/>
</svg>
