<svg width="497" height="85" viewBox="0 0 497 85" fill="none" xmlns="http://www.w3.org/2000/svg">
    <path d="M126.526 50.163C124.918 50.1655 123.341 49.9533 121.98 49.551C120.618 49.1487 119.526 48.5728 118.832 47.8902C118.138 47.2076 117.87 46.4463 118.059 45.6948C118.247 44.9432 118.885 44.2323 119.898 43.6447L204.016 2.85528C204.647 2.51249 205.507 2.28085 206.455 2.19838C207.402 2.11591 208.381 2.1875 209.231 2.40141C210.081 2.61532 210.751 2.95884 211.131 3.37557C211.511 3.79231 211.579 4.2575 211.324 4.6948L195.01 28.7685C194.529 29.3745 194.367 30.0263 194.539 30.6681C194.711 31.3098 195.211 31.9224 195.996 32.4533C196.782 32.9841 197.829 33.4174 199.048 33.7159C200.267 34.0144 201.622 34.1692 202.997 34.1671H262.474C264.082 34.1645 265.659 34.3767 267.02 34.7791C268.382 35.1814 269.474 35.7573 270.168 36.4399C270.862 37.1225 271.13 37.8838 270.941 38.6353C270.753 39.3868 270.115 40.0977 269.102 40.6854L184.984 81.4748C184.353 81.8176 183.493 82.0492 182.545 82.1317C181.598 82.2142 180.619 82.1426 179.769 81.9287C178.919 81.7148 178.249 81.3712 177.869 80.9545C177.489 80.5378 177.421 80.0726 177.676 79.6353L193.99 55.5616C194.471 54.9556 194.633 54.3038 194.461 53.662C194.289 53.0202 193.789 52.4077 193.004 51.8768C192.218 51.346 191.171 50.9127 189.952 50.6142C188.733 50.3157 187.378 50.1609 186.003 50.163H126.526Z" fill="black" stroke="black" stroke-width="4.33" stroke-linecap="round" stroke-linejoin="round"/>
    <path d="M288.444 72.165V13.9832H311.398C315.792 13.9832 319.542 14.7692 322.648 16.3412C325.773 17.8942 328.15 20.1006 329.779 22.9605C331.427 25.8014 332.251 29.1442 332.251 32.9889C332.251 36.8525 331.417 40.1764 329.751 42.9605C328.084 45.7256 325.669 47.8469 322.506 49.3241C319.362 50.8014 315.556 51.54 311.086 51.54H295.717V41.6537H309.097C311.446 41.6537 313.397 41.3317 314.95 40.6878C316.503 40.0438 317.658 39.0779 318.415 37.79C319.192 36.5022 319.58 34.9018 319.58 32.9889C319.58 31.0571 319.192 29.4283 318.415 28.1025C317.658 26.7768 316.493 25.773 314.921 25.0912C313.368 24.3904 311.408 24.04 309.04 24.04H300.745V72.165H288.444ZM319.864 45.6878L334.325 72.165H320.745L306.597 45.6878H319.864ZM349.893 13.9832L363.955 58.1878H364.495L378.586 13.9832H392.222L372.165 72.165H356.313L336.228 13.9832H349.893ZM401.519 72.165H388.337L408.423 13.9832H424.275L444.332 72.165H431.15L416.576 27.2787H416.121L401.519 72.165ZM400.695 49.2957H431.832V58.898H400.695V49.2957ZM451.334 72.165V13.9832H463.636V62.023H488.579V72.165H451.334Z" fill="black"/>
    <path d="M6.9648 72.165V13.9832H46.1693V24.1253H19.2659V37.9889H44.1523V48.1309H19.2659V62.023H46.283V72.165H6.9648ZM104.614 13.9832V72.165H93.9889L68.6764 35.5457H68.2503V72.165H55.9492V13.9832H66.7446L91.8583 50.5741H92.3696V13.9832H104.614Z" fill="black"/>
</svg>
